<?xml version="1.0" standalone="no"?>
<!DOCTYPE svg PUBLIC "-//W3C//DTD SVG 20010904//EN"
 "http://www.w3.org/TR/2001/REC-SVG-20010904/DTD/svg10.dtd">
<svg version="1.0" xmlns="http://www.w3.org/2000/svg"
 width="300.000000pt" height="300.000000pt" viewBox="0 0 300.000000 300.000000"
 preserveAspectRatio="xMidYMid meet">
<metadata>
Created by potrace 1.11, written by Peter Selinger 2001-2013
</metadata>
<g transform="translate(0.000000,300.000000) scale(0.100000,-0.100000)"
fill="#000000" stroke="none">
<path d="M292 2068 c-15 -20 -20 -47 -27 -148 -3 -52 -8 -115 -10 -140 -2 -25
-7 -94 -11 -155 -3 -60 -8 -123 -9 -140 -2 -16 -3 -36 -4 -44 0 -8 -4 -11 -8
-7 -5 4 -9 136 -10 293 -2 272 -6 315 -31 299 -12 -7 -28 -100 -38 -211 -3
-44 -8 -89 -10 -100 -6 -31 -6 -336 0 -374 12 -79 34 -123 97 -201 57 -70 70
-101 78 -187 1 -8 15 -13 36 -13 34 0 35 1 35 38 0 49 21 89 97 184 52 66 64
88 78 150 23 101 23 397 0 616 -4 31 -9 65 -11 75 -6 21 -30 23 -37 2 -4 -8
-9 -123 -13 -257 -3 -134 -7 -258 -9 -276 -3 -34 -14 -56 -16 -31 0 8 -2 37
-4 64 -3 50 -15 334 -20 455 -2 78 -11 110 -31 110 -24 0 -32 -40 -38 -206
-14 -354 -18 -419 -27 -428 -5 -6 -9 26 -10 85 -2 374 -6 516 -18 537 -14 26
-15 26 -29 10z"/>
<path d="M1320 2068 c-76 -28 -13 -61 120 -64 132 -4 207 25 148 57 -33 18
-224 22 -268 7z"/>
<path d="M2485 2064 c-5 -2 -29 -8 -52 -14 -23 -6 -49 -17 -56 -25 -14 -13
-30 -84 -43 -188 -3 -23 -7 -53 -10 -67 -32 -186 -20 -464 22 -550 44 -87 175
-120 279 -70 57 28 88 87 110 210 9 47 9 269 0 355 -4 39 -8 86 -10 105 -5 71
-18 156 -26 178 -12 30 -86 63 -152 66 -29 2 -56 2 -62 0z"/>
<path d="M1260 1918 c-6 -46 -13 -94 -15 -107 -19 -124 -27 -437 -12 -513 10
-54 26 -86 83 -163 65 -88 72 -102 77 -153 7 -53 13 -63 40 -58 12 3 25 5 30
5 4 1 7 17 7 36 0 46 25 95 93 177 78 96 92 152 92 378 0 159 -8 304 -20 377
-3 16 -7 43 -9 61 -6 43 -9 46 -38 31 -34 -19 -197 -21 -255 -4 -26 8 -51 15
-54 15 -4 0 -12 -37 -19 -82z m308 -110 c107 -28 -86 -56 -231 -34 -53 8 -59
27 -11 38 40 9 202 6 242 -4z m-223 -73 c64 -12 231 -5 256 11 15 9 21 -41 20
-150 -1 -61 -3 -120 -5 -131 -2 -11 -7 -44 -11 -73 -12 -89 -69 -132 -172
-132 -51 0 -139 43 -147 73 -15 52 -21 121 -21 247 1 148 6 174 32 166 10 -3
32 -8 48 -11z"/>
<path d="M2210 1870 c-11 -11 -20 -29 -20 -40 0 -11 9 -29 20 -40 11 -11 29
-20 40 -20 11 0 29 9 40 20 11 11 20 29 20 40 0 11 -9 29 -20 40 -11 11 -29
20 -40 20 -11 0 -29 -9 -40 -20z"/>
<path d="M2766 1874 c-24 -24 -20 -71 8 -89 60 -39 124 47 68 93 -22 17 -57
15 -76 -4z"/>
<path d="M2225 1702 c-48 -10 -66 -59 -35 -97 16 -20 64 -19 84 1 37 37 1 107
-49 96z"/>
<path d="M2800 1702 c-40 -14 -52 -68 -22 -95 44 -40 110 -5 97 52 -9 40 -37
56 -75 43z"/>
<path d="M2202 1509 c-40 -15 -48 -69 -14 -96 38 -31 106 5 94 50 -10 44 -40
61 -80 46z"/>
<path d="M2795 1508 c-29 -16 -36 -30 -30 -58 17 -72 115 -62 115 12 0 41 -48
67 -85 46z"/>
<path d="M2450 1075 c0 -19 6 -22 52 -24 28 -1 54 -2 57 -3 22 -2 31 5 31 22
0 23 4 22 -77 24 -58 2 -63 0 -63 -19z"/>
<path d="M2449 1024 c0 -5 -2 -17 -4 -27 -3 -16 4 -18 68 -14 58 3 73 7 75 20
2 9 2 17 0 17 -94 9 -138 10 -139 4z"/>
<path d="M2503 953 c-45 -3 -53 -7 -53 -24 0 -17 7 -19 66 -19 61 0 65 1 62
22 -3 25 -5 25 -75 21z"/>
</g>
</svg>
